<svg width="30" height="75" viewBox="0 0 30 75" fill="none" xmlns="http://www.w3.org/2000/svg">
<path d="M0.535156 10.0894L2.80273 1.99463C6.8457 1.11572 10.2998 0.67627 13.165 0.67627C19.1064 0.67627 23.3252 2.02979 25.8213 4.73682C28.335 7.44385 29.5918 10.4497 29.5918 13.7544C29.5918 16.1626 29.1436 18.2017 28.2471 19.8716C27.3682 21.5239 26.1553 23.1938 24.6084 24.8813L17.5947 32.5542C15.5029 34.7866 14.457 36.6938 14.457 38.2759C14.457 39.1021 14.668 39.9458 15.0898 40.8071C15.5293 41.6685 16.1094 42.5122 16.8301 43.3384C17.5684 44.1646 18.333 44.938 19.124 45.6587C19.9326 46.3794 20.9346 47.2671 22.1299 48.3218L15.7754 55.4409C11.6973 52.0132 8.63867 49.0337 6.59961 46.5024C4.57812 43.9712 3.56738 41.2642 3.56738 38.3813C3.56738 35.7974 5.43945 32.3081 9.18359 27.9136L16.5137 19.1597C17.8145 17.5073 18.4648 15.9253 18.4648 14.4136C18.4648 12.8667 17.8584 11.6187 16.6455 10.6694C15.4502 9.70264 13.7188 9.21924 11.4512 9.21924C7.12695 9.21924 3.48828 9.50928 0.535156 10.0894ZM5.83496 60.8462H19.4404V74.4517H5.83496V60.8462Z" fill="#FDFFFC"/>
</svg>
