<svg width="84" height="54" viewBox="0 0 84 54" fill="none" xmlns="http://www.w3.org/2000/svg">
<ellipse cx="17.1189" cy="17.2394" rx="17.1189" ry="17.2394" fill="#F5F6F0"/>
<path d="M15.8606 34.2254H18.6297L20.8954 33.9719L23.4129 33.2113L27.4409 30.4226L30.2101 26.8733L31.9723 24.0845L33.2311 20.5352L33.9863 17.7465L31.9723 8.61975L33.2311 10.3944L34.2381 12.4226L35.2451 14.9578L35.7486 17.493L36.0003 20.7888V23.324L35.7486 26.8733L34.7416 30.9296L33.7346 33.7183L32.4758 36.2536L30.9653 39.0423L29.2031 41.5775L24.9234 45.6338L20.1402 48.9296L17.1192 50.4507L14.6017 51.4648L12.0842 52.4789L9.31499 53.2395L6.54575 53.7465L3.77652 54L2.76953 46.9014L5.28701 45.8874L8.05636 44.6198L11.3291 42.8451L12.5877 41.5775L13.5947 40.3099L14.0982 39.2958L14.8534 37.7747L15.3569 36.2536L15.8606 34.2254Z" fill="#F5F6F0"/>
<ellipse cx="65.1189" cy="17.2394" rx="17.1189" ry="17.2394" fill="#F5F6F0"/>
<path d="M63.8606 34.2254H66.6297L68.8954 33.9719L71.4129 33.2113L75.4409 30.4226L78.2101 26.8733L79.9723 24.0845L81.2311 20.5352L81.9863 17.7465L79.9723 8.61975L81.2311 10.3944L82.2381 12.4226L83.2451 14.9578L83.7486 17.493L84.0003 20.7888V23.324L83.7486 26.8733L82.7416 30.9296L81.7346 33.7183L80.4758 36.2536L78.9653 39.0423L77.2031 41.5775L72.9234 45.6338L68.1402 48.9296L65.1192 50.4507L62.6017 51.4648L60.0842 52.4789L57.315 53.2395L54.5458 53.7465L51.7765 54L50.7695 46.9014L53.287 45.8874L56.0564 44.6198L59.3291 42.8451L60.5877 41.5775L61.5947 40.3099L62.0982 39.2958L62.8534 37.7747L63.3569 36.2536L63.8606 34.2254Z" fill="#F5F6F0"/>
</svg>
